<svg width="344.827490234375px" height="126.802490234375px" xmlns="http://www.w3.org/2000/svg" viewBox="77.58625488281251 11.5987548828125 344.827490234375 126.802490234375" style="background: rgba(0, 0, 0, 0);" preserveAspectRatio="xMidYMid"><defs><filter id="editing-hole" x="-100%" y="-100%" width="300%" height="300%"><feFlood flood-color="#000000" result="black"></feFlood><feMorphology operator="dilate" radius="2" in="SourceGraphic" result="erode"></feMorphology><feGaussianBlur in="erode" stdDeviation="4" result="blur"></feGaussianBlur><feOffset in="blur" dx="2" dy="2" result="offset"></feOffset><feComposite operator="atop" in="offset" in2="black" result="merge"></feComposite><feComposite operator="in" in="merge" in2="SourceGraphic" result="inner-shadow"></feComposite></filter></defs><g filter="url(#editing-hole)"><g transform="translate(130.0649983882904, 98.875)"><path d="M16.45-26.82L16.45-26.82L16.45-26.82Q16.70-26.82 17.41-26.30L17.41-26.30L17.41-26.30Q18.11-25.79 18.88-25.79L18.88-25.79L18.94-25.79L18.94-25.79Q21.12-25.79 22.40-27.52L22.40-27.52L22.40-27.52Q23.68-29.25 23.81-30.98L23.81-30.98L24-32.70L24-32.70Q24-35.14 23.26-36.90L23.26-36.90L23.26-36.90Q22.53-38.66 21.57-39.52L21.57-39.52L21.57-39.52Q20.61-40.38 19.33-40.83L19.33-40.83L19.33-40.83Q17.73-41.47 15.97-41.47L15.97-41.47L15.97-41.47Q14.21-41.47 13.12-41.12L13.12-41.12L13.12-41.12Q12.03-40.77 11.90-40.45L11.90-40.45L11.84-40.06L11.84-40.06Q11.26-31.42 11.26-24.61L11.26-24.61L11.26-24.61Q11.26-17.79 11.49-12.86L11.49-12.86L11.49-12.86Q11.71-7.94 11.94-5.28L11.94-5.28L11.94-5.28Q12.16-2.62 12.16-2.37L12.16-2.37L12.16-2.37Q12.16-0.77 9.34 0.19L9.34 0.19L9.34 0.19Q6.53 1.15 3.78 1.15L3.78 1.15L3.78 1.15Q2.50 1.15 2.50 0.51L2.50 0.51L2.50 0.51Q2.50 0.32 2.69-0.38L2.69-0.38L2.69-0.38Q3.90-3.20 3.90-26.56L3.90-26.56L3.90-26.56Q3.90-40.32 2.05-42.30L2.05-42.30L2.05-42.30Q1.66-42.69 1.66-43.10L1.66-43.10L1.66-43.10Q1.66-43.52 2.59-44.03L2.59-44.03L2.59-44.03Q3.52-44.54 7.81-45.22L7.81-45.22L7.81-45.22Q12.10-45.89 16.90-45.89L16.90-45.89L16.90-45.89Q24.45-45.89 28.26-41.79L28.26-41.79L28.26-41.79Q32.06-37.70 32.06-32.03L32.06-32.03L32.06-32.03Q32.06-26.37 28.96-22.21L28.96-22.21L28.96-22.21Q25.86-18.05 20.86-18.05L20.86-18.05L20.86-18.05Q19.26-18.05 17.66-18.62L17.66-18.62L17.66-18.62Q14.46-19.78 14.46-23.42L14.46-23.42L14.46-23.42Q14.46-24.19 14.98-25.50L14.98-25.50L14.98-25.50Q15.49-26.82 16.45-26.82ZM37.95-24.13L37.95-24.13L37.95-24.13Q36.29-24.06 35.55-24.03L35.55-24.03L35.55-24.03Q34.82-24 34.82-24.38L34.82-24.38L34.82-24.38Q34.82-24.77 35.20-25.15L35.20-25.15L35.20-25.15Q39.30-28.93 49.02-28.93L49.02-28.93L49.02-28.93Q52.35-28.93 54.27-28.35L54.27-28.35L54.91-28.16L54.91-28.16Q55.68-27.84 55.68-27.46L55.68-27.46L55.68-27.46Q55.68-27.14 55.23-26.94L55.23-26.94L55.23-26.94Q53.50-26.43 51.90-25.31L51.90-25.31L51.90-25.31Q50.30-24.19 50.30-23.74L50.30-23.74L50.69-23.30L50.69-23.30Q52.74-22.14 53.86-19.65L53.86-19.65L53.86-19.65Q54.98-17.15 55.10-15.23L55.10-15.23L55.23-13.25L55.23-13.25Q55.23-6.91 51.71-2.82L51.71-2.82L51.71-2.82Q48.19 1.28 42.11 1.28L42.11 1.28L42.11 1.28Q39.04 1.28 36.80 0.19L36.80 0.19L36.80 0.19Q34.56-0.90 33.50-2.27L33.50-2.27L33.50-2.27Q32.45-3.65 31.81-5.38L31.81-5.38L31.81-5.38Q31.04-7.74 31.04-10.27L31.04-10.27L31.04-10.27Q31.04-12.80 31.90-15.36L31.90-15.36L31.90-15.36Q32.77-17.92 33.89-19.14L33.89-19.14L33.89-19.14Q35.01-20.35 36.42-21.12L36.42-21.12L36.42-21.12Q38.21-22.08 39.30-22.08L39.30-22.08L39.30-22.08Q40.38-22.08 40.38-21.63L40.38-21.63L40-20.99L40-20.99Q38.59-19.33 37.98-16.64L37.98-16.64L37.98-16.64Q37.38-13.95 37.38-11.87L37.38-11.87L37.38-11.87Q37.38-9.79 37.89-7.74L37.89-7.74L37.89-7.74Q38.40-5.70 39.04-4.70L39.04-4.70L39.04-4.70Q39.68-3.71 40.51-3.20L40.51-3.20L40.51-3.20Q41.73-2.43 43.07-2.43L43.07-2.43L43.07-2.43Q44.42-2.43 45.70-3.49L45.70-3.49L45.70-3.49Q46.98-4.54 47.55-6.27L47.55-6.27L47.55-6.27Q48.70-9.47 48.70-12.86L48.70-12.86L48.70-12.86Q48.70-18.24 45.98-21.18L45.98-21.18L45.98-21.18Q43.26-24.13 37.95-24.13ZM77.63-8.77L77.63-8.77L77.63-8.77Q77.63-6.02 76.58-3.97L76.58-3.97L76.58-3.97Q75.52-1.92 74.18-0.96L74.18-0.96L74.18-0.96Q72.83 0 70.98 0.58L70.98 0.58L70.98 0.58Q68.54 1.34 66.56 1.34L66.56 1.34L66.56 1.34Q62.40 1.34 59.65-0.29L59.65-0.29L59.65-0.29Q56.90-1.92 56.90-5.50L56.90-5.50L56.90-5.50Q56.90-7.62 58.05-8.96L58.05-8.96L58.05-8.96Q59.84-10.94 62.34-10.94L62.34-10.94L62.34-10.94Q63.10-10.94 63.10-10.24L63.10-10.24L63.10-10.24Q63.10-10.18 62.82-9.25L62.82-9.25L62.82-9.25Q62.53-8.32 62.53-6.91L62.53-6.91L62.53-6.91Q62.53-5.50 63.65-4.42L63.65-4.42L63.65-4.42Q64.77-3.33 66.37-3.33L66.37-3.33L66.37-3.33Q67.97-3.33 68.93-3.87L68.93-3.87L68.93-3.87Q69.89-4.42 70.27-5.25L70.27-5.25L70.27-5.25Q70.85-6.40 70.85-7.42L70.85-7.42L70.85-7.42Q70.85-9.28 68.99-10.62L68.99-10.62L68.99-10.62Q67.14-11.97 64.90-12.74L64.90-12.74L64.90-12.74Q62.66-13.50 60.80-15.30L60.80-15.30L60.80-15.30Q58.94-17.09 58.94-19.78L58.94-19.78L58.94-19.78Q58.94-24.38 61.86-26.69L61.86-26.69L61.86-26.69Q64.77-28.99 69.76-28.99L69.76-28.99L69.76-28.99Q71.94-28.99 74.34-28.38L74.34-28.38L74.34-28.38Q76.74-27.78 76.74-26.34L76.74-26.34L76.74-26.34Q76.74-24.90 76.26-23.68L76.26-23.68L76.26-23.68Q75.78-22.46 75.07-22.46L75.07-22.46L75.07-22.46Q74.69-22.46 74.56-22.75L74.56-22.75L74.56-22.75Q74.43-23.04 74.11-23.42L74.11-23.42L74.11-23.42Q73.79-23.81 72.58-24.42L72.58-24.42L72.58-24.42Q71.36-25.02 70.50-25.02L70.50-25.02L70.50-25.02Q69.63-25.02 69.34-24.99L69.34-24.99L69.34-24.99Q69.06-24.96 68.35-24.80L68.35-24.80L68.35-24.80Q67.65-24.64 67.07-24.32L67.07-24.32L67.07-24.32Q65.60-23.49 65.60-21.89L65.60-21.89L65.60-21.89Q65.60-20.86 66.05-20.38L66.05-20.38L66.05-20.38Q66.50-19.90 66.75-19.65L66.75-19.65L66.75-19.65Q67.01-19.39 67.65-19.04L67.65-19.04L67.65-19.04Q68.29-18.69 68.54-18.56L68.54-18.56L68.54-18.56Q68.80-18.43 69.70-18.02L69.70-18.02L69.70-18.02Q70.59-17.60 70.85-17.47L70.85-17.47L70.85-17.47Q77.63-14.27 77.63-8.77ZM79.23-24.96L79.23-24.96L79.42-27.52L79.42-27.52Q79.49-28.10 80.32-28.10L80.32-28.10L82.56-28.10L82.30-33.22L82.30-33.47L82.30-33.47Q82.30-34.94 84.54-36.29L84.54-36.29L84.54-36.29Q86.78-37.63 88.64-37.63L88.64-37.63L88.64-37.63Q89.22-37.63 89.22-37.12L89.22-37.12L89.22-37.06L89.22-37.06Q88.96-35.33 88.70-28.16L88.70-28.16L88.70-28.16Q91.52-28.16 92.29-28.29L92.29-28.29L92.29-28.29Q93.06-28.42 93.12-28.42L93.12-28.42L93.12-28.42Q93.57-28.42 93.57-27.65L93.57-27.65L93.57-27.65Q93.57-26.88 92.86-25.70L92.86-25.70L92.86-25.70Q92.16-24.51 91.33-24.45L91.33-24.45L88.64-24.45L88.64-24.45Q88.58-22.27 88.58-17.12L88.58-17.12L88.58-17.12Q88.58-11.97 88.67-8.64L88.67-8.64L88.67-8.64Q88.77-5.31 88.90-3.62L88.90-3.62L88.90-3.62Q89.02-1.92 89.18-0.90L89.18-0.90L89.18-0.90Q89.34 0.13 89.44 0.58L89.44 0.58L89.44 0.58Q89.54 1.02 89.54 1.15L89.54 1.15L89.54 1.15Q89.54 1.79 88.70 1.86L88.70 1.86L88.70 1.86Q86.21 1.86 83.74 1.15L83.74 1.15L83.74 1.15Q81.28 0.45 81.28-1.28L81.28-1.28L81.28-1.28Q82.62-12.03 82.62-24.38L82.62-24.38L82.62-24.38Q80.90-24.38 80-24.26L80-24.26L79.94-24.26L79.94-24.26Q79.36-24.26 79.23-24.96ZM133.70-14.66L133.70-14.66L133.70-14.66Q134.91-14.66 134.91-11.58L134.91-11.58L134.91-11.58Q134.91-8.51 133.76-6.08L133.76-6.08L133.76-6.08Q132.61-3.65 130.98-2.30L130.98-2.30L130.98-2.30Q129.34-0.96 127.30-0.13L127.30-0.13L127.30-0.13Q120.45 2.88 114.50-0.26L114.50-0.26L114.50-0.26Q111.49-1.86 109.89-4.06L109.89-4.06L109.89-4.06Q108.29-6.27 107.33-9.34L107.33-9.34L107.33-9.34Q105.86-13.95 105.86-19.01L105.86-19.01L105.86-19.01Q105.86-24.06 106.82-28.48L106.82-28.48L106.82-28.48Q107.78-32.90 109.76-36.90L109.76-36.90L109.76-36.90Q111.74-40.90 115.39-43.33L115.39-43.33L115.39-43.33Q119.04-45.76 123.84-45.76L123.84-45.76L123.84-45.76Q125.89-45.76 128.10-45.09L128.10-45.09L128.10-45.09Q130.30-44.42 131.71-43.42L131.71-43.42L131.71-43.42Q133.12-42.43 134.21-40.38L134.21-40.38L134.21-40.38Q135.30-38.34 135.30-35.58L135.30-35.58L135.30-35.58Q135.30-32.64 133.89-30.27L133.89-30.27L133.89-30.27Q133.25-29.18 131.84-28.32L131.84-28.32L131.84-28.32Q130.43-27.46 128.51-27.46L128.51-27.46L128.51-27.46Q125.57-27.46 124.35-30.08L124.35-30.08L124.35-30.08Q123.84-31.10 123.84-32.32L123.84-32.32L123.84-32.32Q123.84-33.54 124.67-33.73L124.67-33.73L124.67-33.73Q125.57-33.98 126.34-35.14L126.34-35.14L126.34-35.14Q127.10-36.29 127.10-37.82L127.10-37.82L127.10-37.82Q127.10-39.04 126.46-39.94L126.46-39.94L126.46-39.94Q125.25-41.54 122.94-41.54L122.94-41.54L122.94-41.54Q120.64-41.54 118.75-39.42L118.75-39.42L118.75-39.42Q116.86-37.31 115.90-34.11L115.90-34.11L115.90-34.11Q113.98-27.71 113.98-22.34L113.98-22.34L113.98-22.34Q113.98-16.96 115.46-13.70L115.46-13.70L115.46-13.70Q117.25-9.66 120-8.32L120-8.32L120-8.32Q121.73-7.49 123.97-7.49L123.97-7.49L123.97-7.49Q127.74-7.49 130.75-10.88L130.75-10.88L130.75-10.88Q132.03-12.22 132.86-14.08L132.86-14.08L132.86-14.08Q133.18-14.66 133.70-14.66ZM160.77-24.45L159.81-24.26L159.81-24.26Q159.10-24.06 159.10-23.84L159.10-23.84L159.10-23.84Q159.10-23.62 160.64-23.04L160.64-23.04L160.64-23.04Q162.18-22.46 163.55-21.25L163.55-21.25L163.55-21.25Q164.93-20.03 165.50-18.30L165.50-18.30L165.50-18.30Q166.40-15.68 166.40-12.67L166.40-12.67L166.40-12.67Q166.40-9.66 166.85-7.71L166.85-7.71L166.85-7.71Q167.30-5.76 167.94-4.74L167.94-4.74L167.94-4.74Q169.22-2.56 170.30-2.05L170.30-2.05L170.75-1.79L170.75-1.79Q171.14-1.54 171.14-1.15L171.14-1.15L171.14-1.15Q171.14-0.19 168 0.54L168 0.54L168 0.54Q164.86 1.28 163.14 1.28L163.14 1.28L163.14 1.28Q159.74 1.28 158.82-1.44L158.82-1.44L158.82-1.44Q157.89-4.16 157.89-10.75L157.89-10.75L157.89-14.27L157.89-14.27Q157.89-19.84 154.56-21.38L154.56-21.38L154.56-21.38Q153.28-21.95 151.49-21.95L151.49-21.95L151.42-21.95L151.42-21.95Q150.85-21.95 150.85-23.07L150.85-23.07L150.85-23.07Q150.85-24.19 151.52-25.34L151.52-25.34L151.52-25.34Q152.19-26.50 152.70-26.50L152.70-26.50L152.70-26.50Q154.82-26.50 156.35-27.30L156.35-27.30L156.35-27.30Q157.89-28.10 158.59-29.25L158.59-29.25L158.59-29.25Q160.06-31.68 160.19-33.41L160.19-33.41L160.19-34.24L160.19-34.24Q160.19-36.61 159.42-38.24L159.42-38.24L159.42-38.24Q158.66-39.87 157.50-40.51L157.50-40.51L157.50-40.51Q155.58-41.54 153.60-41.54L153.60-41.54L153.60-41.54Q151.62-41.54 150.34-41.22L150.34-41.22L150.34-41.22Q148.54-40.70 148.54-40.13L148.54-40.13L148.54-40.13Q147.97-31.74 147.97-23.97L147.97-23.97L147.97-23.97Q147.97-16.19 148.19-12.06L148.19-12.06L148.19-12.06Q148.42-7.94 148.64-5.41L148.64-5.41L148.64-5.41Q148.86-2.88 148.86-2.43L148.86-2.43L148.86-2.43Q148.86-1.60 148.42-1.28L148.42-1.28L148.42-1.28Q145.79 1.15 140.16 1.15L140.16 1.15L140.16 1.15Q139.20 1.15 139.20 0.51L139.20 0.51L139.20 0.51Q139.20 0.32 139.39-0.38L139.39-0.38L139.39-0.38Q140.03-1.86 140.32-9.73L140.32-9.73L140.32-9.73Q140.61-17.60 140.61-24.10L140.61-24.10L140.61-24.10Q140.61-30.59 140.35-34.62L140.35-34.62L140.35-34.62Q139.97-40.70 139.07-41.92L139.07-41.92L139.07-41.92Q138.37-42.82 138.37-43.17L138.37-43.17L138.37-43.17Q138.37-43.52 139.07-43.90L139.07-43.90L139.07-43.90Q143.17-45.82 153.92-45.82L153.92-45.82L153.92-45.82Q162.56-45.82 166.85-40.96L166.85-40.96L166.85-40.96Q169.15-38.27 169.15-34.24L169.15-34.24L169.15-34.24Q169.15-31.81 168.19-29.89L168.19-29.89L168.19-29.89Q167.23-27.97 165.82-26.94L165.82-26.94L165.82-26.94Q163.14-24.90 160.77-24.45L160.77-24.45ZM173.57-11.14L173.57-11.14L174.02-29.12L174.02-29.12Q174.02-33.28 173.82-35.97L173.82-35.97L173.82-35.97Q173.50-40.77 172.74-41.98L172.74-41.98L172.48-42.37L172.48-42.37Q172.16-42.62 172.16-43.01L172.16-43.01L172.16-43.01Q172.16-44.22 175.36-44.96L175.36-44.96L175.36-44.96Q178.56-45.70 180.74-45.70L180.74-45.70L180.74-45.70Q182.91-45.70 182.91-44.48L182.91-44.48L182.85-43.78L182.85-43.78Q181.95-37.44 181.76-28.77L181.76-28.77L181.76-28.77Q181.57-20.10 181.57-17.41L181.57-17.41L181.57-17.41Q181.57-14.72 181.76-12.93L181.76-12.93L181.76-12.93Q181.95-11.14 181.98-10.85L181.98-10.85L181.98-10.85Q182.02-10.56 182.30-9.76L182.30-9.76L182.30-9.76Q182.59-8.96 183.04-8.32L183.04-8.32L183.04-8.32Q184.19-6.78 186.30-6.78L186.30-6.78L186.30-6.78Q188.42-6.78 189.86-7.74L189.86-7.74L189.86-7.74Q191.30-8.70 192-10.11L192-10.11L192-10.11Q193.47-13.12 193.79-15.30L193.79-15.30L193.92-16.26L193.92-16.26Q194.24-20.80 194.24-27.01L194.24-27.01L194.24-27.01Q194.24-33.22 194.18-35.14L194.18-35.14L194.18-35.14Q194.11-37.06 193.98-38.30L193.98-38.30L193.98-38.30Q193.86-39.55 193.76-40.51L193.76-40.51L193.76-40.51Q193.66-41.47 193.60-42.02L193.60-42.02L193.60-42.02Q193.54-42.56 193.54-42.62L193.54-42.62L193.54-42.62Q193.54-43.33 194.24-43.78L194.24-43.78L194.24-43.78Q195.33-44.61 197.60-45.18L197.60-45.18L197.60-45.18Q199.87-45.76 201.66-45.76L201.66-45.76L201.66-45.76Q203.46-45.76 203.46-44.93L203.46-44.93L203.46-44.93Q203.46-44.80 203.14-42.82L203.14-42.82L203.14-42.82Q201.73-34.11 201.73-18.62L201.73-18.62L201.73-18.62Q201.73-7.17 203.26-2.30L203.26-2.30L203.26-2.30Q203.52-1.54 203.52-1.25L203.52-1.25L203.52-1.25Q203.52-0.96 203.01-0.51L203.01-0.51L203.01-0.51Q201.09 0.96 197.92 0.96L197.92 0.96L197.92 0.96Q194.75 0.96 194.50-0.64L194.50-0.64L194.50-0.64Q194.18-1.47 194.11-3.97L194.11-3.97L194.05-4.74L194.05-4.74Q194.05-5.31 193.79-5.31L193.79-5.31L193.09-4.86L193.09-4.86Q191.87-2.82 190.27-1.44L190.27-1.44L190.27-1.44Q188.67-0.06 187.20 0.45L187.20 0.45L187.20 0.45Q185.09 1.22 183.07 1.22L183.07 1.22L183.07 1.22Q181.06 1.22 179.04 0.16L179.04 0.16L179.04 0.16Q177.02-0.90 176.03-2.30L176.03-2.30L176.03-2.30Q175.04-3.71 174.40-5.63L174.40-5.63L174.40-5.63Q173.57-8.38 173.57-11.14ZM220.61-41.47L220.61-41.47L220.61-41.47Q219.46-41.47 218.62-41.09L218.62-41.09L218.62-41.09Q217.79-40.70 217.79-40.13L217.79-40.13L217.79-40.13Q217.02-37.44 217.02-24.10L217.02-24.10L217.02-24.10Q217.02-10.75 216.96-9.15L216.96-9.15L216.96-9.15Q218.18-7.23 220.74-7.23L220.74-7.23L220.74-7.23Q225.28-7.23 227.58-12.26L227.58-12.26L227.58-12.26Q229.89-17.28 229.89-24.86L229.89-24.86L229.89-24.86Q229.89-32.45 227.65-36.96L227.65-36.96L227.65-36.96Q225.41-41.47 220.61-41.47ZM208.38 0.70L208.38 0.70L208.38 0.70Q207.42 0.58 207.42 0.13L207.42 0.13L207.62-0.64L207.62-0.64Q209.22-4.10 209.22-25.54L209.22-25.54L209.22-25.54Q209.22-35.78 208.67-38.34L208.67-38.34L208.67-38.34Q208.13-40.90 207.81-41.60L207.81-41.60L207.49-42.24L207.49-42.24Q207.23-42.50 207.23-42.98L207.23-42.98L207.23-42.98Q207.23-43.46 208-43.78L208-43.78L208-43.78Q212.99-45.76 221.12-45.76L221.12-45.76L221.12-45.76Q238.21-45.76 238.21-24L238.21-24L238.21-24Q238.21-15.49 235.20-8.45L235.20-8.45L235.20-8.45Q233.98-5.76 232.38-3.81L232.38-3.81L232.38-3.81Q230.78-1.86 228.19-0.54L228.19-0.54L228.19-0.54Q225.60 0.77 222.46 0.77L222.46 0.77L222.46 0.77Q221.82 0.70 220.83 0.58L220.83 0.58L220.83 0.58Q219.84 0.45 217.89-0.38L217.89-0.38L217.89-0.38Q215.94-1.22 215.23-2.56L215.23-2.56L215.23-2.56Q212.86 0.70 208.38 0.70Z" fill="#5d4747"></path></g></g><style>text {
  font-size: 64px;
  font-family: Arial Black;
  dominant-baseline: central;
  text-anchor: middle;
}</style></svg>